# xmcd
#
# Track frame offsets:
# 150
# 19607
# 35115
# 56915
# 75248
# 96022
# 118391
# 137433
# 159079
# 179014
# 194471
# 213035
# 235241
# 249081
# 266393
# 285170
# 305954
# 320805
#
# Disc length: 4531 seconds
#
# Revision: 0
# Processed by: cddbd v1.4PL0 Copyright (c) Steve Scherf et al.
# Submitted via: Audion 3.0.2 (http://www.panic.com/audion/)
#
DISCID=f511b112
DTITLE=fdgfgd - fgdg
DYEAR=1900
DGENRE=
TTITLE0=v
TTITLE1=hvh
TTITLE2=jvj
TTITLE3=v
TTITLE4=h
TTITLE5=vjv
TTITLE6=kvh
TTITLE7=vv
TTITLE8=h
TTITLE9=vh
TTITLE10=vh
TTITLE11=vhv
TTITLE12=vh
TTITLE13=vh
TTITLE14=vh
TTITLE15=vv
TTITLE16=hvh
TTITLE17=vv
EXTD=
EXTT0=
EXTT1=
EXTT2=
EXTT3=
EXTT4=
EXTT5=
EXTT6=
EXTT7=
EXTT8=
EXTT9=
EXTT10=
EXTT11=
EXTT12=
EXTT13=
EXTT14=
EXTT15=
EXTT16=
EXTT17=
PLAYORDER=
